# This file uses centimeters as units for non-parametric coordinates.

mtllib transistor.mtl
g default
v -0.021135 0.190800 -0.019185
v -0.021135 0.137500 -0.019185
v 0.018955 0.137500 -0.019185
v 0.018955 0.190800 -0.019185
v 0.023935 0.137500 -0.008189
v 0.023935 0.137500 0.001619
v 0.024339 0.137500 -0.003285
v 0.023935 0.190800 0.001619
v 0.023935 0.190800 -0.008189
v 0.024339 0.190800 -0.003285
v 0.023907 0.137500 0.001761
v 0.020153 0.137500 0.010822
v 0.022403 0.137500 0.006446
v 0.020153 0.190800 0.010822
v 0.023907 0.190800 0.001761
v 0.022403 0.190800 0.006446
v 0.020073 0.137500 0.010942
v 0.013138 0.137500 0.017878
v 0.016891 0.137500 0.014696
v 0.013138 0.190800 0.017878
v 0.020073 0.190800 0.010942
v 0.016891 0.190800 0.014696
v 0.013017 0.137500 0.017958
v 0.003956 0.137500 0.021711
v 0.008641 0.137500 0.020208
v 0.003956 0.190800 0.021711
v 0.013017 0.190800 0.017958
v 0.008641 0.190800 0.020208
v 0.003814 0.137500 0.021740
v -0.005994 0.137500 0.021740
v -0.001090 0.137500 0.022144
v -0.005994 0.190800 0.021740
v 0.003814 0.190800 0.021740
v -0.001090 0.190800 0.022144
v -0.006136 0.137500 0.021711
v -0.015197 0.137500 0.017958
v -0.010821 0.137500 0.020208
v -0.015197 0.190800 0.017958
v -0.006136 0.190800 0.021711
v -0.010821 0.190800 0.020208
v -0.015317 0.137500 0.017878
v -0.022252 0.137500 0.010943
v -0.019070 0.137500 0.014696
v -0.022252 0.190800 0.010943
v -0.015317 0.190800 0.017878
v -0.019070 0.190800 0.014696
v -0.022333 0.137500 0.010822
v -0.026086 0.137500 0.001761
v -0.024583 0.137500 0.006446
v -0.026086 0.190800 0.001761
v -0.022333 0.190800 0.010822
v -0.024583 0.190800 0.006446
v -0.026114 0.137500 0.001619
v -0.026114 0.137500 -0.008189
v -0.026518 0.137500 -0.003285
v -0.026114 0.190800 -0.008189
v -0.026114 0.190800 0.001619
v -0.026518 0.190800 -0.003285
v -0.026086 0.137500 -0.008331
v -0.022333 0.137500 -0.017392
v -0.024583 0.137500 -0.013016
v -0.022333 0.190800 -0.017392
v -0.026086 0.190800 -0.008331
v -0.024583 0.190800 -0.013016
v 0.020153 0.137500 -0.017392
v 0.023907 0.137500 -0.008331
v 0.022403 0.137500 -0.013016
v 0.023907 0.190800 -0.008331
v 0.020153 0.190800 -0.017392
v 0.022403 0.190800 -0.013016
v 0.026410 0.017500 -0.003285
v 0.023910 0.017500 -0.000785
v 0.021410 0.017500 -0.003285
v 0.023910 0.017500 -0.005785
v 0.013910 0.137500 -0.003285
v 0.011410 0.137500 -0.000785
v 0.008910 0.137500 -0.003285
v 0.011410 0.137500 -0.005785
v -0.023590 0.017500 -0.003285
v -0.026090 0.017500 -0.000785
v -0.028590 0.017500 -0.003285
v -0.026090 0.017500 -0.005785
v -0.011090 0.137500 -0.003285
v -0.013590 0.137500 -0.000785
v -0.016090 0.137500 -0.003285
v -0.013590 0.137500 -0.005785
v 0.001410 0.017500 -0.003285
v -0.001090 0.017500 -0.000785
v -0.003590 0.017500 -0.003285
v -0.001090 0.017500 -0.005785
v 0.001410 0.137500 -0.003285
v -0.001090 0.137500 -0.000785
v -0.003590 0.137500 -0.003285
v -0.001090 0.137500 -0.005785
v 0.001410 0.137500 -0.003285
v -0.001090 0.137500 -0.000785
v -0.003590 0.137500 -0.003285
v -0.001090 0.137500 -0.005785
v 0.001410 0.017500 -0.003285
v -0.001090 0.017500 -0.000785
v -0.003590 0.017500 -0.003285
v -0.001090 0.017500 -0.005785
v -0.011090 0.137500 -0.003285
v -0.013590 0.137500 -0.000785
v -0.016090 0.137500 -0.003285
v -0.013590 0.137500 -0.005785
v -0.011111 0.126309 -0.003285
v -0.013590 0.127500 -0.000535
v -0.016068 0.128691 -0.003285
v -0.013590 0.127500 -0.006035
v -0.023611 0.116309 -0.003285
v -0.026090 0.117500 -0.000535
v -0.028568 0.118691 -0.003285
v -0.026090 0.117500 -0.006035
v -0.023590 0.017500 -0.003285
v -0.026090 0.017500 -0.000785
v -0.028590 0.017500 -0.003285
v -0.026090 0.017500 -0.005785
v 0.013910 0.137500 -0.003285
v 0.011410 0.137500 -0.000785
v 0.008910 0.137500 -0.003285
v 0.011410 0.137500 -0.005785
v 0.013889 0.128691 -0.003285
v 0.011410 0.127500 -0.000535
v 0.008932 0.126309 -0.003285
v 0.011410 0.127500 -0.006035
v 0.026389 0.118691 -0.003285
v 0.023910 0.117500 -0.000535
v 0.021432 0.116309 -0.003285
v 0.023910 0.117500 -0.006035
v 0.026410 0.017500 -0.003285
v 0.023910 0.017500 -0.000785
v 0.021410 0.017500 -0.003285
v 0.023910 0.017500 -0.005785
vt 0.203423 0.480735
vt 0.946089 0.119780
vt 0.966858 0.339826
vt 0.381330 0.445347
vt 0.905804 1.000000
vt 0.480996 0.204733
vt 0.880220 0.053911
vt 0.106589 1.000000
vt 0.915976 0.415976
vt 0.415976 0.084024
vt 0.655804 1.000000
vt 0.750000 0.484726
vt 1.000000 0.500000
vt 0.937500 1.000000
vt 0.413218 0.623740
vt 0.844196 0.500000
vt 0.905804 0.500000
vt 0.413218 0.567911
vt 0.969196 0.500000
vt 0.980735 0.296577
vt 0.445347 0.381330
vt 0.204733 0.019004
vt 0.906696 0.500000
vt 0.093304 1.000000
vt 0.469196 1.000000
vt 1.000000 1.000000
vt 0.656696 0.500000
vt 0.843304 0.500000
vt 0.937500 0.500000
vt 0.468304 0.500000
vt 0.968304 1.000000
vt 0.296577 0.019265
vt 0.466858 0.160174
vt 0.119781 0.446089
vt 0.406696 1.000000
vt 0.593304 0.500000
vt 0.030804 1.000000
vt 0.393411 1.000000
vt 0.795267 0.480996
vt 0.915976 0.084024
vt 0.000000 0.500000
vt 0.295267 0.019004
vt 0.594196 0.500000
vt 0.875000 1.000000
vt 0.704733 0.480996
vt 0.603231 0.435031
vt 0.703423 0.480735
vt 0.250000 0.484726
vt 0.480735 0.296577
vt 0.393411 0.500000
vt 0.103231 0.064969
vt 0.945347 0.118670
vt 0.484725 0.250000
vt 0.704733 0.019004
vt 0.445347 0.118670
vt 0.556201 0.623740
vt 0.103231 0.435031
vt 0.380220 0.053911
vt 0.030804 0.500000
vt 0.750000 1.000000
vt 0.795267 0.019004
vt 0.718304 0.500000
vt 0.844196 1.000000
vt 0.781696 0.500000
vt 0.718304 1.000000
vt 0.031696 1.000000
vt 0.812500 0.500000
vt 0.380220 0.446089
vt 0.781696 1.000000
vt 0.719196 0.500000
vt 0.530804 0.500000
vt 0.000000 1.000000
vt 0.687500 1.000000
vt 0.703423 0.019265
vt 0.469196 0.500000
vt 0.655804 0.500000
vt 0.750000 0.500000
vt 0.812500 1.000000
vt 0.603231 0.064969
vt 0.160175 0.466858
vt 0.339826 0.033142
vt 0.875000 0.500000
vt 0.945347 0.381330
vt 0.843304 1.000000
vt 0.625000 1.000000
vt 0.062500 1.000000
vt 0.687500 0.500000
vt 0.966858 0.160174
vt 0.780804 1.000000
vt 0.980996 0.295267
vt 0.660175 0.466858
vt 0.480996 0.295267
vt 0.062500 0.500000
vt 0.839825 0.033142
vt 0.881330 0.054653
vt 0.796577 0.019265
vt 0.619781 0.053911
vt 0.556201 0.567911
vt 0.969196 1.000000
vt 0.093304 0.500000
vt 0.531696 0.500000
vt 0.466858 0.339826
vt 0.468304 1.000000
vt 0.204733 0.480996
vt 0.446089 0.380220
vt 0.160175 0.033142
vt 0.593304 1.000000
vt 0.250000 0.015275
vt 0.980735 0.203423
vt 0.295267 0.480996
vt 0.106589 0.500000
vt 0.562500 1.000000
vt 0.906696 1.000000
vt 0.750000 0.015275
vt 0.968304 0.500000
vt 0.531696 1.000000
vt 0.446089 0.119780
vt 0.796577 0.480735
vt 0.656696 1.000000
vt 0.530804 1.000000
vt 0.500000 0.500000
vt 0.619781 0.446089
vt 0.406696 0.500000
vt 0.625000 0.500000
vt 0.480735 0.203423
vt 0.031696 0.500000
vt 0.780804 0.500000
vt 0.594196 1.000000
vt 0.381330 0.054653
vt 0.119780 0.053911
vt 0.415976 0.415976
vt 0.719196 1.000000
vt 0.500000 1.000000
vt 0.839826 0.466858
vt 0.984725 0.250000
vt 0.562500 0.500000
vt 0.946089 0.380220
vt 0.881330 0.445347
vt 0.437500 0.500000
vt 0.203423 0.019265
vt 0.980996 0.204733
vt 0.880220 0.446089
vt 0.660175 0.033142
vt 0.339826 0.466858
vt 0.437500 1.000000
vt 0.296577 0.480735
vt 0.333333 0.000000
vt 1.000000 0.000000
vt 0.000000 0.000000
vt 0.666667 0.000000
vt 0.333333 0.000000
vt 1.000000 0.000000
vt 0.666667 0.000000
vt 0.000000 0.000000
vt 0.333333 0.000000
vt 1.000000 0.000000
vt 0.000000 0.000000
vt 0.666667 0.000000
vt 1.000000 0.000000
vt 0.333333 0.000000
vt 0.000000 0.000000
vt 0.666667 0.000000
vt 0.333333 0.000000
vt 1.000000 0.000000
vt 0.000000 0.000000
vt 0.666667 0.000000
vt 1.000000 0.000000
vt 0.333333 0.000000
vt 0.000000 0.000000
vt 0.666667 0.000000
vt 0.000000 1.000000
vt 1.000000 1.000000
vt 1.000000 0.750000
vt 0.000000 0.750000
vt 0.000000 0.250000
vt 1.000000 0.250000
vt 1.000000 0.000000
vt 0.000000 0.000000
vt 0.000000 0.500000
vt 1.000000 0.500000
vt 0.000000 1.000000
vt 0.333333 1.000000
vt 0.333333 0.750000
vt 0.000000 0.750000
vt 0.000000 0.250000
vt 0.333333 0.250000
vt 0.333333 0.000000
vt 0.000000 0.000000
vt 0.000000 0.500000
vt 0.333333 0.500000
vt 0.666667 1.000000
vt 0.666667 0.750000
vt 0.666667 0.250000
vt 0.666667 0.000000
vt 0.666667 0.500000
vt 1.000000 1.000000
vt 1.000000 0.750000
vt 1.000000 0.250000
vt 1.000000 0.000000
vt 1.000000 0.500000
vt 0.000000 1.000000
vt 0.333333 1.000000
vt 0.333333 0.750000
vt 0.000000 0.750000
vt 0.000000 0.250000
vt 0.333333 0.250000
vt 0.333333 0.000000
vt 0.000000 0.000000
vt 0.000000 0.500000
vt 0.333333 0.500000
vt 0.666667 1.000000
vt 0.666667 0.750000
vt 0.666667 0.250000
vt 0.666667 0.000000
vt 0.666667 0.500000
vt 1.000000 1.000000
vt 1.000000 0.750000
vt 1.000000 0.250000
vt 1.000000 0.000000
vt 1.000000 0.500000
vn 0.980785 0.000000 -0.195089
vn 0.980785 0.000000 -0.195089
vn 0.980785 0.000000 -0.195089
vn 0.980785 0.000000 -0.195089
vn 0.555570 0.000000 0.831470
vn 0.555570 0.000000 0.831470
vn 0.555570 0.000000 0.831470
vn 0.555570 0.000000 0.831470
vn 0.195109 0.000000 0.980782
vn 0.195109 0.000000 0.980782
vn 0.195109 0.000000 0.980782
vn 0.195109 0.000000 0.980782
vn -0.195108 -0.000000 0.980782
vn -0.195108 -0.000000 0.980782
vn -0.195108 -0.000000 0.980782
vn -0.195108 -0.000000 0.980782
vn -0.555573 -0.000000 0.831468
vn -0.555573 -0.000000 0.831468
vn -0.555573 -0.000000 0.831468
vn -0.555573 -0.000000 0.831468
vn -0.831465 -0.000000 0.555577
vn -0.831465 -0.000000 0.555577
vn -0.831465 -0.000000 0.555577
vn -0.831465 -0.000000 0.555577
vn -0.980782 -0.000000 0.195106
vn -0.980782 -0.000000 0.195106
vn -0.980782 -0.000000 0.195106
vn -0.980782 -0.000000 0.195106
vn -0.980786 -0.000000 -0.195087
vn -0.980786 -0.000000 -0.195087
vn -0.980786 -0.000000 -0.195087
vn -0.980786 -0.000000 -0.195087
vn -0.831470 -0.000000 -0.555570
vn -0.831470 -0.000000 -0.555570
vn -0.831470 -0.000000 -0.555570
vn -0.831470 -0.000000 -0.555570
vn 0.831470 0.000000 -0.555570
vn 0.831470 0.000000 -0.555570
vn 0.831470 0.000000 -0.555570
vn 0.831470 0.000000 -0.555570
vn 0.831467 0.000000 0.555574
vn 0.831467 0.000000 0.555574
vn 0.831467 0.000000 0.555574
vn 0.831467 0.000000 0.555574
vn -0.000000 1.000000 0.000000
vn -0.000000 1.000000 0.000000
vn -0.000000 1.000000 0.000000
vn -0.000000 1.000000 0.000000
vn -0.000000 1.000000 0.000000
vn -0.000000 1.000000 0.000000
vn -0.000000 1.000000 0.000000
vn -0.000000 1.000000 0.000000
vn -0.000000 1.000000 0.000000
vn -0.000000 1.000000 0.000000
vn -0.000000 1.000000 0.000000
vn -0.000000 1.000000 0.000000
vn -0.000000 1.000000 0.000000
vn -0.000000 1.000000 0.000000
vn -0.000000 1.000000 0.000000
vn -0.000000 1.000000 0.000000
vn -0.000000 1.000000 0.000000
vn -0.000000 1.000000 0.000000
vn -0.000000 1.000000 0.000000
vn -0.000000 1.000000 0.000000
vn -0.000000 1.000000 0.000000
vn -0.000000 1.000000 0.000000
vn -0.000000 1.000000 0.000000
vn -0.000000 1.000000 0.000000
vn -0.000000 1.000000 0.000000
vn -0.000000 1.000000 0.000000
vn -0.000000 1.000000 0.000000
vn -0.000000 1.000000 0.000000
vn -0.000000 1.000000 0.000000
vn -0.000000 1.000000 0.000000
vn -0.000000 1.000000 0.000000
vn -0.000000 1.000000 0.000000
vn -0.000000 1.000000 0.000000
vn -0.000000 1.000000 0.000000
vn -0.000000 1.000000 0.000000
vn 0.980783 0.000000 0.195100
vn 0.980783 0.000000 0.195100
vn 0.980783 0.000000 0.195100
vn 0.980783 0.000000 0.195100
vn -0.000000 -0.000000 -1.000000
vn -0.000000 -0.000000 -1.000000
vn -0.000000 -0.000000 -1.000000
vn -0.000000 -0.000000 -1.000000
vn 0.980786 0.000006 -0.195089
vn 0.980786 -0.000005 -0.195089
vn 1.000000 0.000000 -0.000000
vn 1.000000 0.000000 -0.000000
vn 1.000000 0.000000 -0.000000
vn 1.000000 0.000000 -0.000000
vn 0.980786 -0.000005 0.195088
vn 0.980786 0.000006 0.195088
vn 0.831471 -0.000005 0.555568
vn 0.831471 0.000006 0.555568
vn 0.923880 0.000000 0.382683
vn 0.923880 0.000000 0.382683
vn 0.923880 0.000000 0.382683
vn 0.923880 0.000000 0.382683
vn 0.980785 0.000006 0.195092
vn 0.980785 -0.000005 0.195092
vn 0.555572 -0.000005 0.831469
vn 0.555572 0.000005 0.831469
vn 0.707107 0.000000 0.707107
vn 0.707107 0.000000 0.707107
vn 0.707107 0.000000 0.707107
vn 0.707107 0.000000 0.707107
vn 0.831469 0.000006 0.555571
vn 0.831469 -0.000005 0.555571
vn 0.195093 -0.000005 0.980785
vn 0.195093 0.000005 0.980785
vn 0.382684 0.000000 0.923879
vn 0.382684 0.000000 0.923879
vn 0.382684 0.000000 0.923879
vn 0.382684 0.000000 0.923879
vn 0.555569 0.000006 0.831471
vn 0.555569 -0.000005 0.831471
vn -0.195088 -0.000005 0.980786
vn -0.195088 0.000005 0.980786
vn 0.000000 0.000000 1.000000
vn 0.000000 0.000000 1.000000
vn 0.000000 0.000000 1.000000
vn 0.000000 0.000000 1.000000
vn 0.195089 0.000005 0.980786
vn 0.195089 -0.000005 0.980786
vn -0.555568 -0.000006 0.831471
vn -0.555568 0.000005 0.831471
vn -0.382683 -0.000000 0.923880
vn -0.382683 -0.000000 0.923880
vn -0.382683 -0.000000 0.923880
vn -0.382683 -0.000000 0.923880
vn -0.195092 0.000005 0.980785
vn -0.195092 -0.000005 0.980785
vn -0.831468 -0.000006 0.555572
vn -0.831468 0.000005 0.555572
vn -0.707107 -0.000000 0.707107
vn -0.707107 -0.000000 0.707107
vn -0.707107 -0.000000 0.707107
vn -0.707107 -0.000000 0.707107
vn -0.555572 0.000005 0.831469
vn -0.555572 -0.000005 0.831469
vn -0.980785 -0.000006 0.195093
vn -0.980785 0.000005 0.195093
vn -0.923879 -0.000000 0.382684
vn -0.923879 -0.000000 0.382684
vn -0.923879 -0.000000 0.382684
vn -0.923879 -0.000000 0.382684
vn -0.831471 0.000005 0.555569
vn -0.831471 -0.000006 0.555569
vn -0.980786 -0.000006 -0.195088
vn -0.980786 0.000005 -0.195088
vn -1.000000 -0.000000 0.000000
vn -1.000000 -0.000000 0.000000
vn -1.000000 -0.000000 0.000000
vn -1.000000 -0.000000 0.000000
vn -0.980786 0.000005 0.195089
vn -0.980786 -0.000005 0.195089
vn -0.831471 -0.000006 -0.555568
vn -0.831471 0.000005 -0.555568
vn -0.923880 -0.000000 -0.382683
vn -0.923880 -0.000000 -0.382683
vn -0.923880 -0.000000 -0.382683
vn -0.923880 -0.000000 -0.382683
vn -0.980785 0.000005 -0.195091
vn -0.980785 -0.000006 -0.195091
vn 0.980785 -0.000005 -0.195092
vn 0.980785 0.000006 -0.195092
vn 0.923880 0.000000 -0.382683
vn 0.923880 0.000000 -0.382683
vn 0.923880 0.000000 -0.382683
vn 0.923880 0.000000 -0.382683
vn 0.831471 0.000006 -0.555569
vn 0.831471 -0.000005 -0.555569
vn 0.000000 -1.000000 -0.000000
vn 0.000000 -1.000000 -0.000000
vn 0.000000 -1.000000 -0.000000
vn 0.000000 -1.000000 -0.000000
vn 0.000000 -1.000000 -0.000000
vn 0.000000 -1.000000 -0.000000
vn 0.000000 -1.000000 -0.000000
vn 0.000000 -1.000000 -0.000000
vn 0.000000 -1.000000 -0.000000
vn 0.000000 -1.000000 -0.000000
vn 0.000000 -1.000000 -0.000000
vn 0.000000 -1.000000 -0.000000
vn 0.000000 -1.000000 -0.000000
vn 0.000000 -1.000000 -0.000000
vn 0.000000 -1.000000 -0.000000
vn 0.000000 -1.000000 -0.000000
vn 0.000000 -1.000000 -0.000000
vn 0.000000 -1.000000 -0.000000
vn 0.000000 -1.000000 -0.000000
vn 0.000000 -1.000000 -0.000000
vn 0.000000 -1.000000 -0.000000
vn 0.000000 -1.000000 -0.000000
vn 0.000000 -1.000000 -0.000000
vn 0.000000 -1.000000 -0.000000
vn 0.000000 -1.000000 -0.000000
vn 0.000000 -1.000000 -0.000000
vn 0.000000 -1.000000 -0.000000
vn 0.000000 -1.000000 -0.000000
vn 0.000000 -1.000000 -0.000000
vn 0.000000 -1.000000 -0.000000
vn 0.000000 -1.000000 -0.000000
vn 0.000000 -1.000000 -0.000000
vn 0.000000 -1.000000 -0.000000
vn 0.000000 -1.000000 -0.000000
vn 0.000000 -1.000000 -0.000000
vn 0.000000 -1.000000 -0.000000
vn 0.000000 -1.000000 -0.000000
vn 0.000000 -1.000000 -0.000000
vn 0.000000 -1.000000 -0.000000
vn 0.000000 -1.000000 -0.000000
vn 0.000000 -1.000000 -0.000000
vn 0.000000 1.000000 0.000000
vn 0.000000 1.000000 0.000000
vn 0.000000 1.000000 0.000000
vn 0.000000 1.000000 0.000000
vn 0.000000 1.000000 0.000000
vn 0.000000 1.000000 0.000000
vn 0.000000 -1.000000 -0.000000
vn 0.000000 -1.000000 -0.000000
vn 0.000000 -1.000000 -0.000000
vn 0.000000 -1.000000 -0.000000
vn 0.000000 -1.000000 -0.000000
vn 0.000000 -1.000000 -0.000000
vn -0.000000 1.000000 0.000000
vn -0.000000 1.000000 0.000000
vn -0.000000 1.000000 0.000000
vn -0.000000 1.000000 0.000000
vn -0.000000 1.000000 0.000000
vn -0.000000 1.000000 0.000000
vn 0.000000 -1.000000 -0.000000
vn 0.000000 -1.000000 -0.000000
vn 0.000000 -1.000000 -0.000000
vn 0.000000 -1.000000 0.000004
vn 0.000000 -1.000000 0.000004
vn 0.000000 -1.000000 0.000004
vn 0.000000 1.000000 0.000000
vn 0.000000 1.000000 0.000000
vn 0.000000 1.000000 0.000000
vn 0.000000 1.000000 0.000000
vn 0.000000 1.000000 0.000000
vn 0.000000 1.000000 0.000000
vn 0.707107 0.000000 -0.707107
vn 0.707107 0.000000 -0.707107
vn 0.707107 0.000000 -0.707107
vn 0.707107 0.000000 -0.707107
vn 0.707107 0.000000 0.707107
vn 0.707107 0.000000 0.707107
vn 0.707107 0.000000 0.707107
vn 0.707107 0.000000 0.707107
vn -0.707107 -0.000000 0.707107
vn -0.707107 -0.000000 0.707107
vn -0.707107 -0.000000 0.707107
vn -0.707107 -0.000000 0.707107
vn -0.707107 -0.000000 -0.707107
vn -0.707107 -0.000000 -0.707107
vn -0.707107 -0.000000 -0.707107
vn -0.707107 -0.000000 -0.707107
vn 0.726429 0.007373 -0.687201
vn 0.726429 0.007373 -0.687201
vn 0.726429 0.007373 -0.687201
vn 0.726429 0.007373 -0.687201
vn 0.726430 0.007373 0.687201
vn 0.726430 0.007373 0.687201
vn 0.726430 0.007373 0.687201
vn 0.726430 0.007373 0.687201
vn -0.724644 0.008334 0.689073
vn -0.724644 0.008334 0.689073
vn -0.724644 0.008334 0.689073
vn -0.724644 0.008334 0.689073
vn -0.724644 0.008334 -0.689073
vn -0.724644 0.008334 -0.689073
vn -0.724644 0.008334 -0.689073
vn -0.724644 0.008334 -0.689073
vn 0.464031 -0.580039 -0.669500
vn 0.464031 -0.580039 -0.669500
vn 0.464031 -0.580039 -0.669500
vn 0.464031 -0.580039 -0.669500
vn 0.464031 -0.580039 0.669499
vn 0.464031 -0.580039 0.669499
vn 0.464031 -0.580039 0.669499
vn 0.464031 -0.580039 0.669499
vn -0.464031 0.580040 0.669499
vn -0.464031 0.580040 0.669499
vn -0.464031 0.580040 0.669499
vn -0.464031 0.580040 0.669499
vn -0.464031 0.580039 -0.669499
vn -0.464031 0.580039 -0.669499
vn -0.464031 0.580039 -0.669499
vn -0.464031 0.580039 -0.669499
vn 0.725525 -0.000787 -0.688196
vn 0.725525 -0.000787 -0.688196
vn 0.725525 -0.000787 -0.688196
vn 0.725525 -0.000787 -0.688196
vn 0.725525 -0.000787 0.688195
vn 0.725525 -0.000787 0.688195
vn 0.725525 -0.000787 0.688195
vn 0.725525 -0.000787 0.688195
vn -0.725702 -0.000778 0.688009
vn -0.725702 -0.000778 0.688009
vn -0.725702 -0.000778 0.688009
vn -0.725702 -0.000778 0.688009
vn -0.725703 -0.000778 -0.688008
vn -0.725703 -0.000778 -0.688008
vn -0.725703 -0.000778 -0.688008
vn -0.725703 -0.000778 -0.688008
vn 0.724644 0.008334 -0.689073
vn 0.724644 0.008334 -0.689073
vn 0.724644 0.008334 -0.689073
vn 0.724644 0.008334 -0.689073
vn 0.724645 0.008334 0.689072
vn 0.724645 0.008334 0.689072
vn 0.724645 0.008334 0.689072
vn 0.724645 0.008334 0.689072
vn -0.726430 0.007373 0.687201
vn -0.726430 0.007373 0.687201
vn -0.726430 0.007373 0.687201
vn -0.726430 0.007373 0.687201
vn -0.726430 0.007373 -0.687201
vn -0.726430 0.007373 -0.687201
vn -0.726430 0.007373 -0.687201
vn -0.726430 0.007373 -0.687201
vn 0.464031 0.580039 -0.669499
vn 0.464031 0.580039 -0.669499
vn 0.464031 0.580039 -0.669499
vn 0.464031 0.580039 -0.669499
vn 0.464032 0.580039 0.669499
vn 0.464032 0.580039 0.669499
vn 0.464032 0.580039 0.669499
vn 0.464032 0.580039 0.669499
vn -0.464031 -0.580040 0.669499
vn -0.464031 -0.580040 0.669499
vn -0.464031 -0.580040 0.669499
vn -0.464031 -0.580040 0.669499
vn -0.464032 -0.580039 -0.669499
vn -0.464032 -0.580039 -0.669499
vn -0.464032 -0.580039 -0.669499
vn -0.464032 -0.580039 -0.669499
vn 0.725702 -0.000778 -0.688009
vn 0.725702 -0.000778 -0.688009
vn 0.725702 -0.000778 -0.688009
vn 0.725702 -0.000778 -0.688009
vn 0.725703 -0.000778 0.688008
vn 0.725703 -0.000778 0.688008
vn 0.725703 -0.000778 0.688008
vn 0.725703 -0.000778 0.688008
vn -0.725525 -0.000787 0.688196
vn -0.725525 -0.000787 0.688196
vn -0.725525 -0.000787 0.688196
vn -0.725525 -0.000787 0.688196
vn -0.725525 -0.000787 -0.688195
vn -0.725525 -0.000787 -0.688195
vn -0.725525 -0.000787 -0.688195
vn -0.725525 -0.000787 -0.688195
s off
g transistor
usemtl TOFBXASC04592SG
f 66/126/1 68/66/2 9/37/3 5/59/4
f 18/16/5 20/63/6 27/84/7 23/28/8
f 24/64/9 26/69/10 33/89/11 29/127/12
f 30/70/13 32/132/14 39/65/15 35/62/16
f 36/27/17 38/119/18 45/11/19 41/76/20
f 42/43/21 44/128/22 51/107/23 47/36/24
f 48/101/25 50/116/26 57/120/27 53/71/28
f 54/75/29 56/25/30 63/103/31 59/30/32
f 60/123/33 62/35/34 1/38/35 2/50/36
f 3/111/37 4/8/38 69/24/39 65/100/40
f 12/23/41 14/113/42 21/5/43 17/17/44
f 14/68/45 16/144/46 15/146/47 8/110/48 10/48/49 9/104/50 68/1/51 70/80/52 69/34/53 4/57/54 1/51/55 62/130/56 64/106/57 63/140/58 56/22/59 58/108/60 57/42/61 50/32/62 52/81/63 51/58/64 44/129/65 46/10/66 45/55/67 38/117/68 40/33/69 39/125/70 32/6/71 34/53/72 33/92/73 26/49/74 28/102/75 27/105/76 20/21/77 22/131/78 21/4/79
f 6/19/80 8/99/81 15/31/82 11/115/83
f 2/18/84 1/98/85 4/56/86 3/15/87
f 5/59/88 9/37/89 10/72/90 7/41/91
f 7/13/92 10/26/93 8/99/94 6/19/95
f 14/113/96 12/23/97 13/29/98 16/14/99
f 16/14/100 13/29/101 11/115/102 15/31/103
f 20/63/104 18/16/105 19/82/106 22/44/107
f 22/44/108 19/82/109 17/17/110 21/5/111
f 26/69/112 24/64/113 25/67/114 28/78/115
f 28/78/116 25/67/117 23/28/118 27/84/119
f 32/132/120 30/70/121 31/77/122 34/60/123
f 34/60/124 31/77/125 29/127/126 33/89/127
f 38/119/128 36/27/129 37/87/130 40/73/131
f 40/73/132 37/87/133 35/62/134 39/65/135
f 44/128/136 42/43/137 43/124/138 46/85/139
f 46/85/140 43/124/141 41/76/142 45/11/143
f 50/116/144 48/101/145 49/136/146 52/112/147
f 52/112/148 49/136/149 47/36/150 51/107/151
f 56/25/152 54/75/153 55/121/154 58/133/155
f 58/133/156 55/121/157 53/71/158 57/120/159
f 62/35/160 60/123/161 61/139/162 64/145/163
f 64/145/164 61/139/165 59/30/166 63/103/167
f 68/66/168 66/126/169 67/93/170 70/86/171
f 70/86/172 67/93/173 65/100/174 69/24/175
f 5/45/176 7/12/177 6/39/178 11/118/179 13/134/180 12/142/181 17/138/182 19/9/183 18/83/184 23/137/185 25/3/186 24/20/187 29/90/188 31/135/189 30/141/190 35/109/191 37/88/192 36/2/193 41/52/194 43/40/195 42/95/196 47/7/197 49/94/198 48/96/199 53/61/200 55/114/201 54/54/202 59/74/203 61/143/204 60/97/205 2/79/206 3/46/207 65/122/208 67/91/209 66/47/210
usemtl LegsFBXASC046004SG
f 72/147/211 74/148/212 71/149/213
f 73/150/214 74/148/215 72/147/216
f 76/151/217 78/152/218 77/153/219
f 75/154/220 78/152/221 76/151/222
f 80/155/223 82/156/224 79/157/225
f 81/158/226 82/156/227 80/155/228
f 86/159/229 84/160/230 83/161/231
f 85/162/232 84/160/233 86/159/234
f 88/163/235 90/164/236 87/165/237
f 88/163/238 89/166/239 90/164/240
f 94/167/241 92/168/242 91/169/243
f 93/170/244 92/168/245 94/167/246
f 95/171/247 99/172/248 102/173/249 98/174/250
f 96/175/251 100/176/252 99/177/253 95/178/254
f 97/179/255 101/180/256 100/176/257 96/175/258
f 98/174/259 102/173/260 101/180/261 97/179/262
f 103/181/263 107/182/264 110/183/265 106/184/266
f 104/185/267 108/186/268 107/187/269 103/188/270
f 105/189/271 109/190/272 108/186/273 104/185/274
f 106/184/275 110/183/276 109/190/277 105/189/278
f 107/182/279 111/191/280 114/192/281 110/183/282
f 108/186/283 112/193/284 111/194/285 107/187/286
f 109/190/287 113/195/288 112/193/289 108/186/290
f 110/183/291 114/192/292 113/195/293 109/190/294
f 111/191/295 115/196/296 118/197/297 114/192/298
f 112/193/299 116/198/300 115/199/301 111/194/302
f 113/195/303 117/200/304 116/198/305 112/193/306
f 114/192/307 118/197/308 117/200/309 113/195/310
f 119/201/311 123/202/312 126/203/313 122/204/314
f 120/205/315 124/206/316 123/207/317 119/208/318
f 121/209/319 125/210/320 124/206/321 120/205/322
f 122/204/323 126/203/324 125/210/325 121/209/326
f 123/202/327 127/211/328 130/212/329 126/203/330
f 124/206/331 128/213/332 127/214/333 123/207/334
f 125/210/335 129/215/336 128/213/337 124/206/338
f 126/203/339 130/212/340 129/215/341 125/210/342
f 127/211/343 131/216/344 134/217/345 130/212/346
f 128/213/347 132/218/348 131/219/349 127/214/350
f 129/215/351 133/220/352 132/218/353 128/213/354
f 130/212/355 134/217/356 133/220/357 129/215/358
